<?xml version="1.0" encoding="utf-8"?>
<!-- Generator: Adobe Illustrator 19.0.0, SVG Export Plug-In . SVG Version: 6.00 Build 0)  -->
<svg version="1.1" id="Layer_1" xmlns="http://www.w3.org/2000/svg" xmlns:xlink="http://www.w3.org/1999/xlink" x="0px" y="0px"
	 viewBox="-210 349.3 190.3 95.7" style="enable-background:new -210 349.3 190.3 95.7;" xml:space="preserve">
<style type="text/css">
	.st0{fill:#85C127;}
</style>
<g>
	<path d="M-206.4,437.3c0-0.3,0-0.4,0-0.6c-0.1-3.6-0.1-7.2-0.2-10.8c0-3,0-6.1,0-9.1c-0.1-7.2-0.1-14.4-0.2-21.6
		c0-2.7-0.1-5.4-0.2-8c0-0.5,0.2-0.8,0.6-1c1.4-0.8,2.7-1.6,4.1-2.4c1.8-1.1,3.6-2.1,5.4-3.1c1.6-1,3.3-1.9,4.9-2.9
		c2.1-1.2,4.2-2.5,6.3-3.7c1.9-1.1,3.9-2.3,5.8-3.4c2.5-1.5,5-2.9,7.4-4.4c2.5-1.5,5.1-3,7.6-4.5c2.8-1.7,5.7-3.4,8.5-5
		c2-1.2,4-2.4,6-3.5c0.2-0.1,0.3-0.2,0.5-0.4c0.8,0.5,1.7,1,2.6,1.5c1.9,1.1,3.7,2.2,5.6,3.4c1.6,1,3.3,2,4.9,3
		c2.1,1.2,4.2,2.5,6.3,3.7c1.5,0.9,3,1.8,4.5,2.8c1.6,1,3.2,1.9,4.7,2.8c1.8,1.1,3.7,2.2,5.5,3.3c2,1.2,4.1,2.4,6.1,3.6
		c2.3,1.4,4.6,2.8,6.9,4.2c1.4,0.9,2.8,1.7,4.2,2.5c1.4,0.9,2.9,1.8,4.3,2.6c0.2,0.1,0.3,0.3,0.3,0.5c0.1,0.8,0.1,1.7,0.2,2.5
		c0.1,4.5,0,9.1,0.2,13.6c0.2,3.7,0,7.4,0.3,11.1c0.1,1.7-0.1,3.5,0.1,5.2c0.2,3.1,0.1,6.3,0.2,9.4c0.1,2,0.1,4,0.1,6
		c0,0.2,0,0.3,0,0.5c0.5,0.1,5.3,0.1,5.9,0c0-0.2,0-0.4,0-0.5c0-4.8,0-9.6,0-14.4c0-0.4-0.1-0.7-0.1-1.1c0-0.2-0.1-0.3-0.1-0.5
		c0-0.9-0.1-1.8-0.4-2.6c-0.1-0.2,0.2-0.5,0.5-0.6c0.6-0.2,1.1-0.3,1.7-0.4c0.6-0.1,1.3-0.2,1.9-0.4c0.7-0.2,1.1,0,1.3,0.8
		c0.1,0.2,0.2,0.5,0.3,0.8c0.4-0.2,0.7-0.5,1.1-0.7c0.6-0.3,1.1-0.6,1.7-0.9c0.2-0.1,0.5,0,0.8-0.1c1.5-0.1,2.8,0.2,4,1.1
		c0.9,0.7,1.6,1.5,2.2,2.6c0.4,0.8,0.6,1.6,0.8,2.5c0.3,1.2,0.2,2.4,0.1,3.6c-0.1,1-0.3,2.1-0.8,3c-0.5,1.1-1.2,2-2.2,2.8
		c-0.7,0.5-1.4,1-2.3,1.1c-0.3,0.1-0.7,0.2-1,0.2c-1.3,0.1-2.4-0.3-3.5-0.9c-0.2-0.1-0.5-0.2-0.7-0.3c-0.3,1.8,0.2,3.4,0.1,5.1h51.4
		V432c2.8,1.4,5.5,2.8,8.4,4.2c-1,0.5-1.9,1-2.8,1.4c-0.9,0.5-1.8,0.9-2.7,1.4c-0.9,0.4-1.7,1-2.8,1.3V437c-2,0-3.9,0-5.8,0
		c-2,0-3.9,0-5.9,0c-1.9,0-3.9,0-5.8,0c-2,0-3.9,0-5.9,0c-1.9,0-3.9,0-5.8,0c-2,0-3.9,0-5.9,0c-1.9,0-3.9,0-5.8,0c-2,0-3.9,0-5.9,0
		c-1.9,0-3.9,0-5.8,0c-2,0-3.9,0-5.9,0c-1.9,0-3.9,0-5.7,0c-0.1-0.1-0.1-0.1-0.1-0.2c-0.1-1.5-0.2-3-0.2-4.6
		c-0.1-4.5-0.1-9.1-0.2-13.6c-0.1-2.5-0.1-5-0.2-7.5c0-3.1,0-6.2-0.2-9.3c-0.3-3.7,0-7.3-0.3-11c-0.1-0.9,0-1.9,0-2.8
		c0-0.4-0.1-0.6-0.4-0.8c-1.8-1.1-3.6-2.1-5.4-3.2c-1.3-0.8-2.6-1.6-4-2.4c-1.8-1.1-3.6-2.2-5.4-3.3c-2-1.2-4.1-2.5-6.1-3.7
		c-2.3-1.4-4.6-2.7-6.9-4.1c-1.5-0.9-3-1.8-4.6-2.8c-1.7-1-3.4-2-5.1-3.1c-2-1.2-3.9-2.4-5.9-3.6c-1.8-1.1-3.6-2.2-5.4-3.2
		c-1.4-0.8-2.7-1.6-4.1-2.5c-0.2-0.1-0.5-0.2-0.7-0.4c-0.5-0.5-0.9-0.3-1.3,0c-3.2,1.9-6.4,3.8-9.6,5.6c-2,1.2-4,2.4-6,3.6
		c-2.3,1.4-4.6,2.7-6.9,4c-1.6,1-3.3,2-4.9,2.9c-1.6,1-3.3,1.9-4.9,2.8c-2.3,1.4-4.6,2.8-6.9,4.1c-2.7,1.6-5.3,3.1-8,4.7
		c-2.4,1.4-4.7,2.8-7.1,4.2c-0.1,0.1-0.2,0.1-0.3,0.2c-0.3,0.1-0.4,0.3-0.4,0.7c0,3.5-0.1,7.1,0.1,10.6c0.3,6.3,0.1,12.7,0.2,19
		c0.1,5.2,0.1,10.4,0.1,15.6c0,1.2,0.1,2.4,0.1,3.6c0,0.6,0,0.7-0.6,0.7C-205.9,437.4-206.1,437.3-206.4,437.3 M-76.5,423.3
		c0.1-0.8,0-1.5-0.4-2.2c-0.5-0.7-1-1.3-1.9-1.3c-1-0.1-1.6,0.4-2.1,1.2c-0.2,0.4-0.3,0.9-0.4,1.3c-0.3,1-0.1,1.8,0.3,2.7
		c0.7,1.6,2.4,1.8,3.6,1c0.2-0.1,0.4-0.3,0.5-0.5C-76.5,424.8-76.4,424-76.5,423.3"/>
	<path class="st0" d="M-102.4,413.5c0.2,0.1,0.3,0.2,0.4,0.3c2.1,1,3.5,2.5,4.2,4.7c0.9,2.8,0.8,5.5-0.5,8.2
		c-0.9,1.9-2.3,3.2-4.1,4.1c-1.7,1-3.6,1.4-5.6,1.5c-2.1,0.1-4.3,0-6.3-0.4c-1.7-0.3-3.3-0.8-4.9-1.5c-0.2-0.1-0.3-0.2-0.4-0.2
		c-0.6-0.4-0.6-0.5-0.4-1.2c0.7-2,1.2-4,1.6-6c0-0.1,0-0.3,0.1-0.4c0.2-0.4,0.4-0.5,0.9-0.4c0.8,0.3,1.6,0.7,2.4,1
		c1.7,0.7,3.4,0.9,5.2,0.6c1-0.2,1.9-0.6,2.4-1.5c0.7-1.1,0.9-2.3,0.2-3.5c-0.5-0.8-1.3-1.2-2.1-1.4c-0.8-0.1-1.7-0.2-2.6-0.2
		c-1.1,0-2.3,0-3.4,0.1c-0.2,0-0.4,0-0.6,0c-1-0.1-1.3-0.3-1.2-1.4c0-1,0-2.1,0.1-3.1c0-0.6,0.1-1.2,0.2-1.8
		c0.1-0.5,0.3-0.7,0.8-0.7c1,0.1,2,0.2,2.9,0.3c0.6,0.1,1.2,0.1,1.7,0.2c1.4,0.1,2.5-1.2,2.6-2.3c0.1-1,0-2-0.7-2.9
		c-0.4-0.5-0.9-0.8-1.5-1c-1.3-0.4-2.7-0.4-4-0.1c-0.9,0.2-1.8,0.5-2.7,0.8c-0.6,0.2-0.8,0.1-0.9-0.6c-0.1-0.5-0.1-0.9-0.1-1.4
		c-0.1-1.2-0.2-2.5-0.3-3.7c-0.1-0.8,0.3-1.3,1-1.7c0.5-0.2,1-0.5,1.5-0.6c2.9-0.7,5.8-1.2,8.8-0.8c2.4,0.3,4.5,1.2,6.3,2.7
		c2,1.7,2.9,3.9,2.9,6.5c0,1.8-0.4,3.4-1.3,5c-0.6,0.9-1.3,1.7-2.2,2.3C-102,413.2-102.2,413.4-102.4,413.5"/>
	<path class="st0" d="M-201.6,411.5c-0.1-5.3-0.2-10.6-0.4-15.8c0-1.1,0-2.1,0-3.2c0-0.6,0.1-0.7,0.7-0.7c1,0,2,0.1,3,0.1
		c1.3,0,2.6,0,3.9,0c0.6,0,1.3,0,1.9-0.1c0.6,0,0.6,0.1,0.6,0.6c-0.2,4.8-0.5,9.7-0.6,14.5c-0.1,4.7-0.1,9.5-0.1,14.2
		c0,0.4,0,0.7,0.1,1.1c0,0.3,0.2,0.5,0.5,0.5c0.1,0,0.3,0,0.5,0c2.3-0.1,4.5-0.2,6.8-0.3c2.1-0.1,4.2-0.2,6.4-0.2
		c0.7,0,0.8,0.1,0.8,0.8c0,2.3-0.2,4.6-0.4,6.9c0,0.4-0.1,0.9-0.2,1.3c-0.1,0.6-0.3,0.8-0.9,0.8c-1.4,0-2.9,0-4.3-0.1
		c-5.2-0.1-10.5-0.2-15.7-0.3c-0.6,0-1.2-0.1-1.9-0.1c-0.7-0.1-0.9-0.3-0.9-1c0-3.1,0.1-6.1,0.1-9.2c0-3.3,0-6.6,0-9.8
		C-201.7,411.5-201.7,411.5-201.6,411.5"/>
	<path class="st0" d="M-167.6,420.9c0.3,1.4,1.2,2.4,2.4,3c1.9,0.9,3.8,0.9,5.8,0.2c1.2-0.4,2.1-1.2,3.1-1.9
		c0.1-0.1,0.3-0.2,0.4-0.3c0.6,0.6,0.9,1.3,1.3,2c0.5,1,0.9,2.1,1.4,3.2c0.3,0.7,0.2,1.2-0.3,1.8c-1.5,1.7-3.5,2.7-5.7,3.1
		c-1.5,0.3-3.1,0.4-4.7,0.3c-4.2-0.3-7.4-2.3-9.6-5.8c-1.4-2.2-2-4.6-2.2-7.1c-0.2-2-0.1-4,0.3-6c0.7-3.2,2.1-6.1,4.7-8.2
		c1.4-1.2,2.9-1.9,4.7-2.2c0.7-0.1,1.4-0.2,2.1-0.2c3.1-0.1,5.7,1,7.8,3.2c1.8,2,3.1,4.2,3.6,6.9c0.2,1.2,0.3,2.4,0.3,3.6
		c0,0.7-0.1,1.3-0.4,1.9c-0.3,0.5-0.7,0.9-1.3,1c-2.1,0.3-4.1,0.5-6.2,0.8c-2.3,0.3-4.7,0.5-7,0.7
		C-167.2,420.8-167.4,420.9-167.6,420.9 M-166.4,415.5c0.6-0.1,1.3-0.1,2-0.2c0.7-0.1,1.3-0.2,2-0.3c0.3,0,0.6-0.1,1-0.1
		c0.7-0.2,0.8-0.4,0.7-1.1c-0.1-1.3-0.8-2.4-1.7-3.2c-1-0.9-2.7-1-3.7-0.2c-1.4,1.1-1.9,2.7-1.9,4.4c0,0.4,0.3,0.6,0.7,0.7
		C-167,415.5-166.8,415.5-166.4,415.5"/>
	<path class="st0" d="M-150.3,425.6c0.9-0.2,1.8-0.4,2.6-0.6c0.7-0.1,1.4-0.3,2-0.7c1.1-0.8,1.5-2.1,1-3.3c-0.4-0.9-0.9-1.6-1.5-2.3
		c-0.5-0.6-1-1.3-1.5-1.9c-1.2-1.6-1.7-3.4-1.6-5.4c0.1-2.3,1.1-4.2,2.7-5.8c1.4-1.3,2.9-2.4,4.8-3c1-0.3,2-0.5,3.1-0.5
		c0.4,0,0.6,0.2,0.7,0.5c0.4,0.6,0.8,1.3,1.1,2c0.5,1,1,2,1.5,3.1c0.1,0.3,0.2,0.6,0.3,0.9c0.1,0.6-0.2,0.8-0.7,0.8
		c-1-0.1-2-0.1-2.9,0.4c-1.5,0.8-2.1,2.6-1.2,4.1c0.5,0.9,1.2,1.7,1.9,2.5c0.7,0.9,1.4,1.9,1.9,3c0.8,1.8,0.9,3.7,0.4,5.7
		c-0.1,0.5-0.3,1-0.5,1.5c-0.3,1-0.9,1.8-1.7,2.5c-1.8,1.5-3.7,2.8-6,3.4c-0.7,0.2-1.5,0.2-2.2,0.3c-0.3,0-0.5-0.1-0.7-0.3
		c-0.4-0.6-0.8-1.2-1.2-1.8c-0.7-1.3-1.3-2.5-2-3.8C-150.3,426.3-150.5,426-150.3,425.6"/>
	<path d="M-51.4,429.2c-0.4,0.3-0.8,0.5-1.1,0.8c-0.8,0.6-1.6,1.1-2.6,1.3c-1.2,0.2-2.5,0.1-3.6-0.6c-0.9-0.5-1.4-1.4-1.7-2.3
		c-0.3-0.7-0.3-1.5-0.4-2.3c-0.3-2.1-0.1-4.2-0.2-6.4c0-0.4,0.1-0.8,0.1-1.1c0.1-0.6,0.1-1.3,0.2-1.9c0.1-0.4,0.1-0.7,0.2-1
		c0.1-0.3,0.4-0.6,0.8-0.5c1.2,0,2.5,0.1,3.7,0.1c0.2,0,0.4,0.1,0.6,0.1c0,0.5,0,0.9,0,1.3c0,0.4-0.1,0.8-0.1,1.2
		c0,0.6-0.1,1.2-0.1,1.7c0,0.7,0,1.5,0,2.3c0,0.8,0,1.7,0.1,2.5c0,0.4,0.1,0.8,0.3,1.1c0.4,0.9,1.6,1,2.3,0.7
		c0.3-0.1,0.5-0.3,0.7-0.4c0.5-0.4,0.7-0.9,0.7-1.5c0-2.7,0-5.4,0-8.1c0-0.8,0.2-0.9,0.9-0.9c1.4,0,2.7,0.1,4.1,0.1
		c0.5,0,0.6,0.1,0.6,0.6c0,1.2,0.1,2.3,0,3.5c-0.3,2.1-0.1,4.2-0.2,6.3c0,1.2,0.1,2.4,0.2,3.7c0,0.3,0,0.5,0,0.8
		c0.1,0.9-0.3,1.2-1.2,1.2c-1.2,0-2.4,0-3.5,0c-0.5,0-0.7-0.1-0.8-0.6C-51.3,430.2-51.3,429.8-51.4,429.2"/>
	<path d="M-68.9,420.9c0-3,0-6,0-9c0-0.5-0.1-1-0.1-1.5c0-0.3,0-0.6-0.1-1c0-0.3,0-0.7-0.1-1c-0.1-0.6,0-0.8,0.7-0.8
		c1.3,0,2.7,0,4,0c0.3,0,0.6,0,0.9,0c0.4,0,0.5,0.2,0.5,0.6c0,0.4,0,0.8-0.1,1.2c0,0.6-0.1,1.2-0.1,1.9c-0.3,5.7-0.2,11.5-0.2,17.2
		c0,0.7,0,1.3,0,2c0,0.7,0,0.8-0.7,0.9c-0.2,0-0.4,0.1-0.6,0.1c-0.9,0-1.8,0-2.8,0c-0.1,0-0.2,0-0.3,0c-0.8-0.1-1-0.3-1-1.1
		C-68.9,427.1-68.9,424-68.9,420.9"/>
	<path d="M-44.1,427.5c0.8-0.2,1.5-0.3,2.2-0.5c1.3-0.4,1.7-1.2,1.1-2.5c-0.2-0.4-0.5-0.8-0.8-1.1c-0.3-0.4-0.6-0.8-0.9-1.1
		c-0.5-0.8-0.9-1.6-0.9-2.5c-0.1-1.2,0.2-2.2,0.9-3.1c0.6-0.8,1.4-1.5,2.3-2c1-0.6,2-0.9,3.1-0.9c0.3,0,0.5,0.1,0.7,0.4
		c0.6,1,1.1,2.1,1.6,3.2c0.1,0.1,0.1,0.2,0.1,0.4c0,0.4-0.1,0.5-0.5,0.4c-0.5-0.1-0.9,0-1.4,0.1c-1.2,0.3-1.6,1.4-1,2.5
		c0.3,0.6,0.8,1.1,1.2,1.6c0.5,0.6,0.9,1.2,1.1,1.9c0.2,0.8,0.4,1.5,0.2,2.3c-0.1,0.7-0.3,1.4-0.6,2.1c-0.3,0.5-0.7,0.9-1.1,1.3
		c-0.9,0.6-1.8,1.2-2.8,1.6c-0.6,0.2-1.2,0.3-1.9,0.3c-0.4,0-0.6-0.3-0.7-0.5c-0.4-0.6-0.8-1.3-1.2-2c-0.2-0.3-0.3-0.6-0.5-1
		C-43.9,428.1-44,427.8-44.1,427.5"/>
</g>
</svg>
